#define icon_width 32
#define icon_height 32
static char icon_bits[] = {
	0x00, 0x00, 0x00, 0x00, 0x00, 0x00, 0x00, 0x00, 0x10, 0x04, 0x00, 0x00,
	0x10, 0x04, 0x00, 0x00, 0x20, 0xc2, 0x89, 0x08, 0x20, 0x22, 0x8a, 0x08,
	0x40, 0x21, 0x92, 0x04, 0x80, 0x20, 0x92, 0x04, 0x80, 0x20, 0x52, 0x05,
	0x80, 0x20, 0x22, 0x02, 0x80, 0xc0, 0x21, 0x02, 0x00, 0x00, 0x00, 0x00,
	0x00, 0x00, 0x00, 0x00, 0xc0, 0x00, 0x00, 0x03, 0xc0, 0x01, 0x80, 0x03,
	0x80, 0x03, 0xc0, 0x01, 0x00, 0x0f, 0xf0, 0x00, 0x00, 0x1c, 0x38, 0x00,
	0x00, 0x38, 0x1c, 0x00, 0x00, 0x70, 0x0e, 0x00, 0x00, 0xe0, 0x07, 0x00,
	0x00, 0xc0, 0x03, 0x00, 0x00, 0xe0, 0x07, 0x00, 0x00, 0x70, 0x0e, 0x00,
	0x00, 0x38, 0x1c, 0x00, 0x00, 0x1c, 0x38, 0x00, 0x00, 0x0f, 0xf0, 0x00,
	0x80, 0x03, 0xc0, 0x01, 0xc0, 0x01, 0x80, 0x03, 0xe0, 0x00, 0x00, 0x07,
	0x00, 0x00, 0x00, 0x00, 0x00, 0x00, 0x00, 0x00
};
